<svg xmlns="http://www.w3.org/2000/svg" xmlns:xlink="http://www.w3.org/1999/xlink" width="500" zoomAndPan="magnify" viewBox="0 0 375 374.999991" height="500" preserveAspectRatio="xMidYMid meet" version="1.0"><defs><g/><clipPath id="id1"><path d="M 158 96 L 304 96 L 304 200 L 158 200 Z M 158 96 " clip-rule="nonzero"/></clipPath><clipPath id="id2"><path d="M 202.648438 0 L 327.277344 124.628906 L 170.828125 281.078125 L 46.203125 156.449219 Z M 202.648438 0 " clip-rule="nonzero"/></clipPath><clipPath id="id3"><path d="M 202.523438 -0.125 L 327.148438 124.503906 L 170.703125 280.949219 L 46.074219 156.324219 Z M 202.523438 -0.125 " clip-rule="nonzero"/></clipPath><clipPath id="id4"><path d="M 69 81 L 215 81 L 215 185 L 69 185 Z M 69 81 " clip-rule="nonzero"/></clipPath><clipPath id="id5"><path d="M 202.648438 0 L 327.277344 124.628906 L 170.828125 281.078125 L 46.203125 156.449219 Z M 202.648438 0 " clip-rule="nonzero"/></clipPath><clipPath id="id6"><path d="M 202.523438 -0.125 L 327.148438 124.503906 L 170.703125 280.949219 L 46.074219 156.324219 Z M 202.523438 -0.125 " clip-rule="nonzero"/></clipPath></defs><g clip-path="url(#id1)"><g clip-path="url(#id2)"><g clip-path="url(#id3)"><path fill="#72cbf6" d="M 267.417969 96.605469 C 299.117188 96.574219 315.871094 134.601562 294.011719 157.597656 C 293.75 157.871094 293.488281 158.136719 293.222656 158.40625 L 256.980469 194.648438 C 247.519531 204.105469 231.367188 197.429688 231.378906 184.058594 C 231.386719 167.664062 237.910156 151.9375 249.515625 140.335938 L 202.0625 140.375 L 158.355469 140.410156 C 158.371094 116.261719 177.96875 96.671875 202.101562 96.664062 Z M 267.417969 96.605469 " fill-opacity="1" fill-rule="nonzero"/></g></g></g><g clip-path="url(#id4)"><g clip-path="url(#id5)"><g clip-path="url(#id6)"><path fill="#4efa7a" d="M 105.777344 184.222656 C 74.078125 184.253906 57.324219 146.226562 79.183594 123.234375 C 79.445312 122.960938 79.707031 122.691406 79.972656 122.425781 L 110.914062 91.484375 L 116.214844 86.179688 C 125.675781 76.722656 141.828125 83.402344 141.816406 96.765625 C 141.804688 113.160156 135.277344 128.890625 123.675781 140.492188 L 171.125 140.453125 L 214.835938 140.410156 C 214.824219 164.558594 195.222656 184.144531 171.085938 184.160156 Z M 105.777344 184.222656 " fill-opacity="1" fill-rule="nonzero"/></g></g></g><g fill="#f9fafd" fill-opacity="1"><g transform="translate(68.798172, 258.177552)"><g><path d="M 22.082031 -32.714844 L 4.144531 -32.714844 L 4.144531 -26.335938 L 14.886719 -26.335938 L 14.886719 -9.324219 C 14.886719 -7.359375 13.46875 -5.890625 11.667969 -5.890625 C 10.03125 -5.890625 8.777344 -7.089844 8.507812 -8.777344 L 1.417969 -6.707031 C 2.125 -2.289062 5.671875 0.4375 11.667969 0.4375 C 18.375 0.4375 22.082031 -3 22.082031 -8.398438 Z M 22.082031 -32.714844 "/></g></g></g><g fill="#f9fafd" fill-opacity="1"><g transform="translate(92.733019, 258.177552)"><g><path d="M 26.71875 -32.714844 L 26.71875 -11.070312 L 10.632812 -32.714844 L 3.21875 -32.714844 L 3.21875 0 L 10.414062 0 L 10.414062 -21.699219 L 26.445312 0 L 33.859375 0 L 33.859375 -32.714844 Z M 26.71875 -32.714844 "/></g></g></g><g fill="#f9fafd" fill-opacity="1"><g transform="translate(128.989708, 258.177552)"><g/></g></g><g fill="#f9fafd" fill-opacity="1"><g transform="translate(141.202453, 258.177552)"><g><path d="M 23.71875 -32.714844 L 23.71875 -19.574219 L 10.414062 -19.574219 L 10.414062 -32.714844 L 3.21875 -32.714844 L 3.21875 0 L 10.414062 0 L 10.414062 -13.195312 L 23.71875 -13.195312 L 23.71875 0 L 30.859375 0 L 30.859375 -32.714844 Z M 23.71875 -32.714844 "/></g></g></g><g fill="#f9fafd" fill-opacity="1"><g transform="translate(174.46047, 258.177552)"><g><path d="M 13.847656 0.4375 C 21.15625 0.4375 25.953125 -4.363281 25.953125 -10.90625 C 25.953125 -17.449219 21.15625 -22.246094 13.847656 -22.246094 C 6.542969 -22.246094 1.691406 -17.449219 1.691406 -10.90625 C 1.691406 -4.363281 6.542969 0.4375 13.847656 0.4375 Z M 13.847656 -5.726562 C 10.851562 -5.78125 8.667969 -7.960938 8.667969 -10.90625 C 8.667969 -13.847656 10.851562 -16.03125 13.847656 -16.085938 C 16.792969 -16.03125 19.027344 -13.847656 19.027344 -10.90625 C 19.027344 -7.960938 16.792969 -5.78125 13.847656 -5.726562 Z M 13.847656 -5.726562 "/></g></g></g><g fill="#f9fafd" fill-opacity="1"><g transform="translate(201.28495, 258.177552)"><g><path d="M 10.25 0.4375 C 15.15625 0.4375 18.15625 -2.5625 18.15625 -6.652344 C 18.15625 -11.015625 14.558594 -12.757812 11.449219 -13.957031 C 9.867188 -14.613281 9.105469 -14.941406 9.105469 -15.757812 C 9.105469 -16.464844 9.652344 -17.011719 10.851562 -17.011719 C 12.269531 -17.011719 13.578125 -16.25 14.230469 -15.429688 L 17.71875 -19.355469 C 16.085938 -20.992188 13.414062 -22.246094 10.359375 -22.246094 C 5.398438 -22.246094 2.234375 -18.976562 2.234375 -15.265625 C 2.234375 -10.90625 6.597656 -9.433594 9.105469 -8.507812 C 11.070312 -7.742188 11.722656 -7.199219 11.722656 -6.433594 C 11.722656 -5.5625 10.960938 -5.070312 9.816406 -5.070312 C 8.667969 -5.070312 7.144531 -5.507812 6.160156 -7.359375 L 1.035156 -4.796875 C 2.34375 -1.417969 6.378906 0.4375 10.25 0.4375 Z M 10.25 0.4375 "/></g></g></g><g fill="#f9fafd" fill-opacity="1"><g transform="translate(219.60409, 258.177552)"><g><path d="M 16.359375 -16.410156 L 16.359375 -21.808594 L 11.175781 -21.808594 L 11.175781 -30.207031 L 4.253906 -30.207031 L 4.253906 -21.808594 L 0.601562 -21.808594 L 0.601562 -16.410156 L 4.253906 -16.410156 L 4.253906 -7.796875 C 4.253906 -3.164062 8.179688 0.4375 12.8125 0.4375 C 14.285156 0.4375 15.757812 0.109375 16.304688 -0.273438 L 16.304688 -5.671875 L 13.6875 -5.671875 C 12.214844 -5.671875 11.175781 -6.816406 11.175781 -8.613281 L 11.175781 -16.410156 Z M 16.359375 -16.410156 "/></g></g></g><g fill="#f9fafd" fill-opacity="1"><g transform="translate(236.178545, 258.177552)"><g><path d="M 6.816406 -25.464844 C 8.886719 -25.464844 10.632812 -27.207031 10.632812 -29.28125 C 10.632812 -31.40625 8.886719 -33.097656 6.816406 -33.097656 C 4.742188 -33.097656 3 -31.40625 3 -29.28125 C 3 -27.207031 4.742188 -25.464844 6.816406 -25.464844 Z M 3.324219 0 L 10.25 0 L 10.25 -21.808594 L 3.324219 -21.808594 Z M 3.324219 0 "/></g></g></g><g fill="#f9fafd" fill-opacity="1"><g transform="translate(248.936498, 258.177552)"><g><path d="M 16.410156 -22.246094 C 13.902344 -22.246094 11.722656 -21.046875 10.195312 -19.136719 L 10.195312 -21.808594 L 3.21875 -21.808594 L 3.21875 0 L 10.195312 0 L 10.195312 -12.648438 C 10.195312 -14.613281 11.832031 -16.085938 13.847656 -16.085938 C 15.867188 -16.085938 17.285156 -14.613281 17.285156 -12.648438 L 17.285156 0 L 24.210938 0 L 24.210938 -13.792969 C 24.210938 -18.59375 20.71875 -22.246094 16.410156 -22.246094 Z M 16.410156 -22.246094 "/></g></g></g><g fill="#f9fafd" fill-opacity="1"><g transform="translate(275.052188, 258.177552)"><g><path d="M 26.28125 -21.808594 L 19.300781 -21.808594 L 19.300781 -19.628906 C 17.503906 -21.265625 15.15625 -22.246094 12.484375 -22.246094 C 6.433594 -22.246094 1.691406 -17.285156 1.691406 -10.90625 C 1.691406 -4.582031 6.433594 0.4375 12.484375 0.4375 C 15.210938 0.4375 17.613281 -0.601562 19.410156 -2.289062 L 19.410156 0.601562 C 19.410156 4.632812 17.175781 7.089844 13.632812 7.089844 C 11.125 7.089844 9.214844 5.726562 8.398438 3.542969 L 2.015625 6.105469 C 3.816406 10.578125 7.90625 13.140625 13.632812 13.140625 C 21.59375 13.140625 26.335938 8.289062 26.335938 0.21875 Z M 14.230469 -5.726562 C 11.339844 -5.726562 9.050781 -8.015625 9.050781 -10.90625 C 9.050781 -13.792969 11.339844 -16.085938 14.230469 -16.085938 C 17.121094 -16.085938 19.464844 -13.792969 19.464844 -10.90625 C 19.464844 -8.015625 17.121094 -5.726562 14.230469 -5.726562 Z M 14.230469 -5.726562 "/></g></g></g><g fill="#f9fafd" fill-opacity="1"><g transform="translate(130.675891, 284.56964)"><g><path d="M 8.1875 -10.421875 L 8.1875 -4.265625 C 8.1875 -3.753906 8.171875 -3.28125 8.140625 -2.84375 C 8.078125 -1.894531 7.738281 -1.144531 7.125 -0.59375 C 6.507812 -0.0507812 5.609375 0.21875 4.421875 0.21875 C 3.242188 0.21875 2.347656 -0.0820312 1.734375 -0.6875 C 1.128906 -1.300781 0.8125 -2.160156 0.78125 -3.265625 L 0.765625 -3.78125 L 2.859375 -3.78125 L 2.890625 -3.265625 C 2.953125 -1.984375 3.503906 -1.34375 4.546875 -1.34375 C 5.472656 -1.34375 5.984375 -1.878906 6.078125 -2.953125 C 6.085938 -3.179688 6.09375 -3.550781 6.09375 -4.0625 L 6.09375 -10.421875 Z M 8.1875 -10.421875 "/></g></g></g><g fill="#f9fafd" fill-opacity="1"><g transform="translate(141.48364, 284.56964)"><g><path d="M 10.484375 0 L 7.640625 0 L 3.34375 -7.90625 C 3.394531 -6.957031 3.421875 -5.890625 3.421875 -4.703125 L 3.421875 0 L 1.34375 0 L 1.34375 -10.421875 L 4.109375 -10.421875 L 8.484375 -2.359375 C 8.429688 -3.296875 8.40625 -4.382812 8.40625 -5.625 L 8.40625 -10.421875 L 10.46875 -10.421875 Z M 10.484375 0 "/></g></g></g><g fill="#f9fafd" fill-opacity="1"><g transform="translate(154.766758, 284.56964)"><g><path d="M 10.375 -10.421875 L 10.375 0 L 8.296875 0 L 8.296875 -4.265625 L 3.421875 -4.265625 L 3.421875 0 L 1.34375 0 L 1.34375 -10.421875 L 3.421875 -10.421875 L 3.421875 -5.9375 L 8.296875 -5.9375 L 8.296875 -10.421875 Z M 10.375 -10.421875 "/></g></g></g><g fill="#f9fafd" fill-opacity="1"><g transform="translate(167.92913, 284.56964)"><g><path d="M 5.921875 -10.625 C 7.503906 -10.625 8.753906 -10.132812 9.671875 -9.15625 C 10.597656 -8.175781 11.0625 -6.859375 11.0625 -5.203125 C 11.0625 -3.566406 10.597656 -2.253906 9.671875 -1.265625 C 8.753906 -0.273438 7.5 0.21875 5.90625 0.21875 C 4.320312 0.21875 3.066406 -0.273438 2.140625 -1.265625 C 1.222656 -2.253906 0.765625 -3.566406 0.765625 -5.203125 C 0.765625 -6.859375 1.222656 -8.175781 2.140625 -9.15625 C 3.054688 -10.132812 4.316406 -10.625 5.921875 -10.625 Z M 3.734375 -2.359375 C 4.265625 -1.679688 4.992188 -1.34375 5.921875 -1.34375 C 6.847656 -1.34375 7.570312 -1.679688 8.09375 -2.359375 C 8.613281 -3.046875 8.875 -3.992188 8.875 -5.203125 C 8.875 -6.421875 8.613281 -7.367188 8.09375 -8.046875 C 7.570312 -8.734375 6.847656 -9.078125 5.921875 -9.078125 C 4.984375 -9.078125 4.25 -8.734375 3.71875 -8.046875 C 3.195312 -7.367188 2.9375 -6.421875 2.9375 -5.203125 C 2.9375 -3.984375 3.203125 -3.035156 3.734375 -2.359375 Z M 3.734375 -2.359375 "/></g></g></g><g fill="#f9fafd" fill-opacity="1"><g transform="translate(181.28771, 284.56964)"><g><path d="M 4.796875 -10.625 C 5.984375 -10.625 6.890625 -10.328125 7.515625 -9.734375 C 8.148438 -9.140625 8.53125 -8.34375 8.65625 -7.34375 L 6.515625 -7.34375 C 6.460938 -7.894531 6.285156 -8.320312 5.984375 -8.625 C 5.679688 -8.925781 5.257812 -9.078125 4.71875 -9.078125 C 4.289062 -9.078125 3.941406 -8.96875 3.671875 -8.75 C 3.398438 -8.539062 3.265625 -8.234375 3.265625 -7.828125 C 3.265625 -7.390625 3.425781 -7.046875 3.75 -6.796875 C 4.070312 -6.546875 4.648438 -6.320312 5.484375 -6.125 C 6.617188 -5.863281 7.453125 -5.46875 7.984375 -4.9375 C 8.523438 -4.40625 8.796875 -3.71875 8.796875 -2.875 C 8.796875 -1.925781 8.421875 -1.171875 7.671875 -0.609375 C 6.929688 -0.0546875 6.023438 0.21875 4.953125 0.21875 C 3.679688 0.21875 2.664062 -0.0625 1.90625 -0.625 C 1.15625 -1.1875 0.734375 -2.003906 0.640625 -3.078125 L 2.765625 -3.078125 C 2.867188 -2.523438 3.117188 -2.097656 3.515625 -1.796875 C 3.910156 -1.492188 4.378906 -1.34375 4.921875 -1.34375 C 5.398438 -1.34375 5.800781 -1.460938 6.125 -1.703125 C 6.457031 -1.941406 6.625 -2.257812 6.625 -2.65625 C 6.625 -3.101562 6.460938 -3.460938 6.140625 -3.734375 C 5.828125 -4.003906 5.296875 -4.226562 4.546875 -4.40625 C 3.378906 -4.6875 2.507812 -5.0625 1.9375 -5.53125 C 1.363281 -6 1.078125 -6.679688 1.078125 -7.578125 C 1.078125 -8.503906 1.4375 -9.242188 2.15625 -9.796875 C 2.882812 -10.347656 3.765625 -10.625 4.796875 -10.625 Z M 4.796875 -10.625 "/></g></g></g><g fill="#f9fafd" fill-opacity="1"><g transform="translate(192.276583, 284.56964)"><g><path d="M 9.5 -8.78125 L 5.96875 -8.78125 L 5.96875 0 L 3.875 0 L 3.875 -8.78125 L 0.34375 -8.78125 L 0.34375 -10.421875 L 9.5 -10.421875 Z M 9.5 -8.78125 "/></g></g></g><g fill="#f9fafd" fill-opacity="1"><g transform="translate(203.491867, 284.56964)"><g><path d="M 0.9375 -1.96875 C 1.164062 -2.207031 1.46875 -2.328125 1.84375 -2.328125 C 2.21875 -2.328125 2.519531 -2.207031 2.75 -1.96875 C 2.988281 -1.726562 3.109375 -1.421875 3.109375 -1.046875 C 3.109375 -0.679688 2.988281 -0.378906 2.75 -0.140625 C 2.519531 0.0976562 2.21875 0.21875 1.84375 0.21875 C 1.46875 0.21875 1.164062 0.0976562 0.9375 -0.140625 C 0.707031 -0.378906 0.59375 -0.679688 0.59375 -1.046875 C 0.59375 -1.421875 0.707031 -1.726562 0.9375 -1.96875 Z M 0.9375 -1.96875 "/></g></g></g><g fill="#f9fafd" fill-opacity="1"><g transform="translate(209.001733, 284.56964)"><g><path d="M 10.484375 0 L 7.640625 0 L 3.34375 -7.90625 C 3.394531 -6.957031 3.421875 -5.890625 3.421875 -4.703125 L 3.421875 0 L 1.34375 0 L 1.34375 -10.421875 L 4.109375 -10.421875 L 8.484375 -2.359375 C 8.429688 -3.296875 8.40625 -4.382812 8.40625 -5.625 L 8.40625 -10.421875 L 10.46875 -10.421875 Z M 10.484375 0 "/></g></g></g><g fill="#f9fafd" fill-opacity="1"><g transform="translate(222.28485, 284.56964)"><g><path d="M 8.859375 -1.640625 L 8.859375 0 L 1.34375 0 L 1.34375 -10.421875 L 8.703125 -10.421875 L 8.703125 -8.78125 L 3.421875 -8.78125 L 3.421875 -6.03125 L 8.328125 -6.03125 L 8.328125 -4.390625 L 3.421875 -4.390625 L 3.421875 -1.640625 Z M 8.859375 -1.640625 "/></g></g></g><g fill="#f9fafd" fill-opacity="1"><g transform="translate(233.39447, 284.56964)"><g><path d="M 9.5 -8.78125 L 5.96875 -8.78125 L 5.96875 0 L 3.875 0 L 3.875 -8.78125 L 0.34375 -8.78125 L 0.34375 -10.421875 L 9.5 -10.421875 Z M 9.5 -8.78125 "/></g></g></g></svg>